<?xml version="1.0" standalone="no"?>
<!DOCTYPE svg PUBLIC "-//W3C//DTD SVG 20010904//EN"
 "http://www.w3.org/TR/2001/REC-SVG-20010904/DTD/svg10.dtd">
<svg version="1.0" xmlns="http://www.w3.org/2000/svg"
 width="740.000000pt" height="740.000000pt" viewBox="0 0 740.000000 740.000000"
 preserveAspectRatio="xMidYMid meet">

<g transform="translate(0.000000,740.000000) scale(0.100000,-0.100000)"
fill="#000000" stroke="none">
<path d="M3182 5290 c-74 -20 -186 -73 -234 -113 l-28 -22 21 -113 21 -112
764 0 c698 0 764 -1 764 -16 0 -9 -27 -168 -60 -353 -43 -235 -68 -349 -83
-381 -26 -51 -90 -104 -145 -120 -23 -6 -231 -10 -560 -10 l-524 0 6 -27 c3
-16 8 -44 11 -63 l6 -35 597 -1 596 -2 18 -22 c23 -28 23 -52 -1 -81 l-19 -23
-637 1 c-563 1 -639 3 -653 17 -11 10 -48 193 -118 588 -57 315 -103 583 -104
596 0 12 -4 22 -8 22 -15 0 -80 -150 -126 -290 -121 -367 -125 -691 -14 -1015
26 -78 85 -200 104 -215 22 -19 16 -31 -13 -25 -27 5 -27 5 -5 -5 13 -5 28 -8
33 -4 5 3 9 2 9 -3 0 -17 85 -44 215 -70 64 -12 135 -17 245 -16 134 0 169 4
255 27 118 31 243 88 334 154 36 26 74 45 85 44 10 -2 15 1 12 7 -12 19 12 93
40 122 16 16 45 34 64 40 94 28 171 -88 122 -183 l-20 -38 35 -6 c59 -11 303
4 383 23 l75 18 32 60 c76 142 131 371 140 580 14 351 -47 597 -183 745 -113
122 -191 146 -439 137 -191 -8 -167 -15 -235 75 -19 26 -41 48 -48 48 -7 0
-11 3 -9 8 5 6 -26 8 -75 4 -11 -1 -18 -10 -18 -22 0 -11 -4 -20 -10 -20 -5 0
-10 -6 -10 -14 0 -22 -36 -25 -69 -5 -204 124 -361 156 -539 109z m643 -146
c19 -16 19 -16 -5 -9 -14 4 -32 11 -40 16 -12 7 -11 8 5 8 11 0 29 -7 40 -15z
m-447 -1409 c26 -29 32 -43 32 -80 0 -85 -53 -145 -128 -145 -75 0 -129 86
-103 162 18 50 40 78 74 94 45 20 87 10 125 -31z"/>
<path d="M3850 5296 c0 -2 7 -7 16 -10 8 -3 12 -2 9 4 -6 10 -25 14 -25 6z"/>
<path d="M3190 4486 l0 -283 41 -7 c22 -4 44 -4 50 -1 5 4 9 124 9 291 l0 284
-50 0 -50 0 0 -284z"/>
<path d="M3348 4479 c2 -268 4 -290 20 -287 16 3 17 28 20 291 l2 287 -22 0
-23 0 3 -291z"/>
<path d="M3498 4479 c2 -268 4 -290 20 -287 16 3 17 28 20 291 l2 287 -22 0
-23 0 3 -291z"/>
<path d="M3600 4480 c0 -283 0 -290 20 -290 20 0 20 7 20 290 0 283 0 290 -20
290 -20 0 -20 -7 -20 -290z"/>
<path d="M3700 4480 l0 -290 45 0 45 0 0 290 0 290 -45 0 -45 0 0 -290z"/>
<path d="M3900 4480 c0 -283 0 -290 20 -290 20 0 20 7 20 290 0 283 0 290 -20
290 -20 0 -20 -7 -20 -290z"/>
<path d="M4000 4480 l0 -290 45 0 45 0 0 290 0 290 -45 0 -45 0 0 -290z"/>
<path d="M4150 4480 c0 -283 0 -290 20 -290 20 0 20 7 20 290 0 283 0 290 -20
290 -20 0 -20 -7 -20 -290z"/>
<path d="M2650 3510 c8 -5 20 -10 25 -10 6 0 3 5 -5 10 -8 5 -19 10 -25 10 -5
0 -3 -5 5 -10z"/>
<path d="M3890 2600 c0 -159 -1 -293 -2 -297 -2 -5 34 -9 80 -11 l82 -3 0 53
c1 32 7 61 16 73 15 20 15 20 32 -2 9 -11 29 -44 44 -72 l28 -51 90 0 90 0
-48 78 c-27 42 -63 99 -80 127 l-30 49 65 81 c37 44 71 86 76 93 7 9 -10 12
-81 12 l-90 0 -56 -77 -56 -78 0 158 0 157 -80 0 -80 0 0 -290z"/>
<path d="M4930 2790 l0 -60 -30 0 c-30 0 -30 0 -30 -59 0 -58 1 -60 28 -63
l27 -3 5 -116 c4 -87 9 -122 23 -142 41 -63 116 -82 191 -49 43 20 46 23 40
49 -15 62 -24 75 -44 70 -11 -3 -29 2 -41 11 -18 15 -20 26 -17 97 l3 80 43 3
42 3 0 60 0 59 -45 0 -45 0 0 60 0 60 -75 0 -75 0 0 -60z"/>
<path d="M2408 2724 c-16 -8 -28 -19 -28 -24 0 -6 -4 -10 -10 -10 -5 0 -10 9
-10 20 0 18 -7 20 -80 20 l-80 0 0 -220 0 -220 80 0 80 0 0 140 c0 127 2 142
20 160 11 11 31 20 45 20 14 0 34 -9 45 -20 18 -18 20 -33 20 -160 l0 -140 75
0 75 0 0 134 c0 120 2 136 21 160 24 31 57 34 90 7 23 -18 24 -26 27 -160 l4
-141 75 0 75 0 -4 168 c-3 182 -11 211 -69 254 -56 42 -159 35 -213 -13 -28
-24 -36 -27 -43 -16 -28 50 -138 73 -195 41z"/>
<path d="M3109 2721 c-82 -26 -81 -26 -56 -77 18 -37 25 -44 42 -39 11 4 45 9
75 12 46 4 59 1 83 -17 15 -12 27 -28 27 -36 0 -11 -7 -13 -27 -7 -45 13 -136
7 -169 -10 -56 -29 -84 -72 -84 -129 0 -43 4 -54 33 -83 55 -55 132 -68 205
-35 34 16 42 16 42 5 0 -12 16 -15 75 -15 l75 0 0 154 c0 85 -5 167 -11 183
-37 99 -169 139 -310 94z m149 -247 c27 -8 30 -54 5 -76 -63 -54 -150 4 -96
64 16 18 50 23 91 12z"/>
<path d="M3753 2720 c-18 -11 -38 -29 -45 -40 -19 -29 -28 -25 -28 15 l0 35
-80 0 -80 0 0 -220 0 -220 80 0 80 0 0 93 c0 50 5 109 11 131 13 47 50 83 95
92 l34 6 0 64 c0 73 -10 79 -67 44z"/>
<path d="M4494 2715 c-61 -30 -99 -80 -114 -150 -45 -203 157 -347 357 -253
24 11 46 25 49 30 4 5 -12 29 -36 53 l-41 42 -37 -18 c-56 -29 -107 -21 -139
20 -29 38 -19 41 143 41 l157 0 -7 52 c-10 74 -45 138 -95 173 -36 25 -54 30
-114 33 -62 3 -79 0 -123 -23z m166 -120 c13 -14 21 -27 18 -30 -3 -3 -41 -5
-84 -3 l-79 3 27 28 c36 36 85 37 118 2z"/>
<path d="M2300 2060 l0 -60 40 0 c22 0 40 5 40 10 0 6 -13 10 -30 10 -29 0
-30 1 -30 50 0 28 -4 50 -10 50 -6 0 -10 -27 -10 -60z"/>
<path d="M2450 2100 c-11 -11 -20 -29 -20 -40 0 -11 9 -29 20 -40 11 -11 29
-20 40 -20 27 0 60 35 60 63 0 51 -63 74 -100 37z m70 -10 c30 -30 13 -65 -30
-65 -43 0 -60 35 -30 65 11 11 25 20 30 20 6 0 19 -9 30 -20z"/>
<path d="M2620 2100 c-11 -11 -20 -29 -20 -40 0 -24 34 -60 56 -60 27 0 54 20
54 40 0 15 -6 20 -27 19 -17 -1 -21 -3 -10 -6 29 -8 20 -33 -12 -33 -29 0 -41
14 -41 50 0 24 34 43 62 34 14 -4 18 -2 14 5 -11 18 -54 13 -76 -9z"/>
<path d="M2780 2100 c-11 -11 -20 -29 -20 -40 0 -11 9 -29 20 -40 11 -11 29
-20 40 -20 27 0 60 35 60 63 0 51 -63 74 -100 37z m70 -10 c25 -25 25 -35 0
-60 -15 -15 -25 -17 -42 -11 -30 11 -37 60 -12 78 24 17 30 17 54 -7z"/>
<path d="M3010 2059 l0 -62 42 6 c65 9 88 57 48 97 -12 12 -33 20 -55 20 l-35
0 0 -61z m64 41 c46 -17 29 -80 -21 -80 -20 0 -23 5 -23 38 0 33 6 52 16 52 1
0 14 -4 28 -10z"/>
<path d="M3178 2060 l4 -60 39 0 c21 0 39 5 39 10 0 6 -16 10 -36 10 -28 0
-35 3 -32 18 2 11 13 17 31 17 15 -1 27 3 27 7 0 4 -14 8 -31 8 -24 0 -30 4
-27 18 2 12 13 17 36 17 17 0 32 3 32 7 0 5 -19 8 -42 8 l-43 0 3 -60z"/>
<path d="M3321 2106 c-17 -20 -3 -44 30 -51 28 -6 39 -28 20 -39 -5 -4 -21 -2
-35 4 -16 6 -26 6 -26 0 0 -15 51 -24 69 -13 30 19 25 43 -14 59 -41 17 -42
40 -1 37 14 -1 24 2 21 8 -9 14 -51 11 -64 -5z"/>
<path d="M3450 2060 c0 -33 4 -60 10 -60 6 0 10 27 10 60 0 33 -4 60 -10 60
-6 0 -10 -27 -10 -60z"/>
<path d="M3548 2108 c-27 -22 -30 -53 -7 -81 31 -40 89 -34 89 9 0 19 -5 24
-22 23 -18 -1 -19 -2 -5 -6 10 -3 16 -10 14 -16 -5 -17 -45 -21 -63 -7 -36 30
3 86 52 75 22 -5 25 -4 14 4 -20 14 -53 14 -72 -1z"/>
<path d="M3692 2058 c1 -50 2 -54 5 -20 2 23 8 42 12 42 4 0 20 -18 37 -40 16
-22 32 -40 37 -40 4 0 6 28 5 63 -1 49 -2 53 -5 20 -2 -24 -7 -43 -11 -43 -4
0 -20 18 -36 40 -17 22 -33 40 -38 40 -4 0 -7 -28 -6 -62z"/>
<path d="M3924 2113 c4 -5 13 -8 19 -8 7 0 13 -21 15 -52 2 -29 7 -53 12 -53
5 0 10 24 12 53 2 31 8 52 15 52 6 0 15 3 19 8 4 4 -17 7 -46 7 -29 0 -50 -3
-46 -7z"/>
<path d="M4070 2060 l0 -60 40 0 c22 0 40 5 40 10 0 6 -16 10 -36 10 -28 0
-35 3 -32 18 2 12 13 17 36 17 42 -1 42 13 0 17 -45 4 -45 33 -1 34 52 1 51
14 0 14 l-47 0 0 -60z"/>
<path d="M4210 2060 c0 -33 4 -60 10 -60 6 0 10 19 11 43 l0 42 16 -32 c20
-41 27 -41 43 -3 15 36 27 32 24 -9 -1 -17 2 -34 7 -37 5 -3 9 22 9 55 0 34
-4 61 -8 61 -5 0 -17 -16 -28 -35 -10 -19 -21 -35 -24 -35 -4 0 -14 16 -23 35
-25 52 -37 43 -37 -25z"/>
<path d="M4390 2060 c0 -33 4 -60 10 -60 6 0 10 10 10 23 0 17 6 23 26 25 34
3 44 10 44 31 0 26 -20 41 -57 41 l-33 0 0 -60z m65 37 c23 -17 12 -37 -21
-37 -19 0 -24 5 -24 25 0 28 17 32 45 12z"/>
<path d="M4530 2060 l0 -60 40 0 c22 0 40 5 40 10 0 6 -13 10 -30 10 -29 0
-30 1 -30 50 0 28 -4 50 -10 50 -6 0 -10 -27 -10 -60z"/>
<path d="M4681 2064 c-22 -59 -23 -75 -1 -49 17 20 49 19 73 -2 20 -17 20 -17
13 2 -23 66 -42 105 -52 105 -6 0 -21 -25 -33 -56z m52 -4 c4 -16 0 -20 -19
-20 -27 0 -28 3 -13 31 12 22 24 18 32 -11z"/>
<path d="M4810 2111 c0 -5 8 -8 18 -7 14 1 17 -8 18 -44 2 -68 7 -71 13 -10 5
44 9 55 24 54 9 -1 17 2 17 7 0 5 -20 9 -45 9 -25 0 -45 -4 -45 -9z"/>
<path d="M4950 2060 l0 -60 45 0 c25 0 45 5 45 10 0 6 -16 10 -36 10 -28 0
-35 3 -32 18 2 11 13 17 31 17 15 -1 27 3 27 7 0 4 -14 8 -31 8 -24 0 -30 4
-27 18 2 12 13 17 36 17 17 0 32 3 32 7 0 5 -20 8 -45 8 l-45 0 0 -60z"/>
</g>
</svg>
